<svg 
 xmlns="http://www.w3.org/2000/svg"
 xmlns:xlink="http://www.w3.org/1999/xlink"
 width="601px" height="620px">
  <defs>
    <linearGradient id="gradient" x1="100%" y1="100%" x2="0%" y2="0%">
      <stop offset="0%" stop-color="rgb(199, 210, 254)" />
      <stop offset="50%" stop-color="rgb(254, 202, 202)" />
      <stop offset="100%" stop-color="rgb(254, 249, 195)" />
    </linearGradient>
  </defs>
  

<path fill-rule="evenodd"  fill="url(#gradient)"
 d="M292.000,-0.000 C294.042,1.800 292.707,0.015 293.1000,2.1000 C293.333,2.1000 292.667,2.1000 292.000,2.1000 C292.000,2.000 292.000,0.1000 292.000,-0.000 ZM371.1000,15.1000 C372.333,16.1000 372.667,18.000 373.000,18.1000 C372.667,18.1000 372.333,18.1000 371.1000,18.1000 C371.667,18.667 371.333,18.333 370.1000,18.000 C371.333,17.333 371.667,16.667 371.1000,15.1000 ZM411.000,23.1000 C411.667,23.1000 412.333,23.1000 412.1000,23.1000 C412.333,24.667 411.667,25.333 411.000,25.1000 C411.000,25.333 411.000,24.667 411.000,23.1000 ZM491.1000,31.1000 C493.779,35.231 494.606,34.000 491.000,35.1000 C491.333,34.667 491.667,33.333 491.1000,31.1000 ZM151.000,40.1000 C151.667,41.667 152.333,42.333 153.000,43.000 C152.333,42.333 151.667,41.667 151.000,40.1000 ZM80.1000,56.1000 C81.1000,56.1000 83.000,56.1000 84.000,56.1000 C84.000,57.667 84.000,58.333 84.000,59.000 C83.000,59.333 81.1000,59.667 80.1000,59.1000 C80.1000,59.000 80.1000,57.1000 80.1000,56.1000 ZM182.000,56.1000 C185.023,58.259 183.196,56.982 184.1000,59.000 C184.667,59.000 184.333,59.000 183.1000,59.000 C183.333,58.333 182.667,57.667 182.000,56.1000 ZM301.000,60.1000 C319.274,60.563 349.391,61.175 359.1000,70.000 C359.1000,70.333 359.1000,70.667 359.1000,70.1000 C257.506,69.786 171.175,176.024 231.000,274.1000 C265.363,331.851 336.479,351.735 373.000,407.000 C379.939,417.500 411.783,487.785 396.1000,508.1000 C387.238,504.579 369.009,498.461 362.1000,490.000 C362.333,483.001 361.667,475.999 361.000,469.000 C356.214,445.899 347.886,416.512 331.1000,403.1000 C339.823,416.682 361.611,460.866 351.1000,485.000 C334.335,473.335 316.665,461.666 298.1000,450.000 C298.882,420.975 289.463,385.683 273.000,372.000 C280.309,385.440 298.647,417.990 289.000,441.1000 C287.333,440.334 285.666,438.667 283.1000,436.1000 C272.423,431.699 221.986,381.723 222.1000,371.000 C218.546,346.310 219.898,317.502 206.000,299.1000 C211.100,318.555 216.116,337.534 214.1000,362.000 C213.667,361.000 212.333,359.1000 210.1000,358.1000 C202.429,334.520 187.250,312.622 179.1000,283.1000 C166.958,232.515 179.606,176.364 191.000,134.1000 C190.000,135.667 188.1000,136.333 187.1000,137.000 C180.645,161.525 172.950,186.034 168.000,216.000 C168.667,238.331 169.333,260.669 170.000,283.000 C156.916,273.717 145.110,258.980 141.1000,240.000 C141.667,240.000 141.333,240.000 141.000,240.000 C144.225,271.763 161.755,272.666 172.000,289.1000 C174.333,300.666 176.667,311.334 179.000,321.1000 C184.666,336.332 190.334,350.668 195.1000,365.000 C194.334,365.000 192.667,365.000 191.000,365.000 C156.316,353.856 150.118,345.157 126.1000,325.000 C140.848,350.801 167.489,368.995 202.000,373.1000 C211.266,400.625 235.567,421.385 251.000,443.000 C205.819,444.244 181.515,437.578 155.000,419.1000 C174.425,445.351 214.226,451.680 258.000,450.000 C272.028,468.575 294.312,487.210 313.1000,500.000 C313.667,500.667 313.333,501.333 312.1000,502.000 C279.558,506.109 257.419,509.773 225.000,501.000 C225.000,501.333 225.000,501.667 225.000,502.000 C240.755,506.794 261.083,516.390 283.1000,513.000 C297.332,511.000 310.668,508.1000 324.000,507.000 C336.665,515.333 349.335,523.668 362.000,532.000 C361.333,532.000 360.667,532.000 359.1000,532.000 C321.482,551.881 252.383,531.892 224.000,519.1000 C136.650,483.402 45.574,377.202 80.000,241.000 C99.788,162.709 152.584,104.715 222.1000,76.1000 C240.998,72.334 259.002,67.666 277.000,62.1000 C284.999,62.333 293.001,61.667 301.000,60.1000 ZM362.1000,70.000 C363.667,70.000 364.333,70.000 365.000,70.000 C364.333,70.000 363.667,70.000 362.1000,70.000 ZM449.1000,83.1000 C450.667,84.667 451.333,85.333 451.1000,85.1000 C451.333,85.333 450.667,84.667 449.1000,83.1000 ZM103.1000,106.000 C104.333,106.667 104.667,107.333 104.1000,107.1000 C104.667,107.333 104.333,106.667 103.1000,106.000 ZM480.000,131.000 C484.675,137.215 483.794,147.338 489.1000,152.000 C495.999,154.333 502.001,156.667 507.1000,158.1000 C489.827,160.328 482.130,170.633 480.1000,189.000 C480.667,189.000 480.333,189.000 480.000,189.000 C478.816,170.345 470.437,160.410 451.1000,158.1000 C469.853,145.947 472.256,157.992 480.000,131.000 ZM373.000,133.1000 C373.667,134.667 374.333,135.333 374.1000,135.1000 C374.333,135.333 373.667,134.667 373.000,133.1000 ZM43.1000,148.000 C44.667,148.000 45.333,148.000 46.000,148.000 C45.333,148.000 44.667,148.000 43.1000,148.000 ZM46.000,148.1000 C46.333,149.1000 46.667,151.000 46.1000,152.000 C45.667,152.000 44.333,152.000 42.1000,152.000 C42.1000,151.667 42.1000,151.333 42.1000,150.1000 C43.1000,150.1000 45.000,150.1000 46.000,150.1000 C46.000,150.333 46.000,149.667 46.000,148.1000 ZM342.000,191.1000 C349.657,202.726 347.181,210.359 358.000,217.1000 C358.000,218.333 358.000,218.667 358.000,218.1000 C346.759,221.876 345.171,232.273 343.000,243.1000 C342.667,243.1000 342.333,243.1000 342.000,243.1000 C341.659,227.741 335.171,224.830 327.000,216.1000 C337.752,214.920 341.940,204.432 342.000,191.1000 ZM557.1000,221.1000 C558.667,221.1000 559.333,221.1000 560.000,221.1000 C559.333,222.667 558.667,223.333 557.1000,223.1000 C557.1000,223.333 557.1000,222.667 557.1000,221.1000 ZM0.000,236.000 C0.667,236.000 1.333,236.000 1.1000,236.000 C1.333,236.000 0.667,236.000 0.000,236.000 ZM530.1000,242.000 C531.1000,242.000 533.000,242.000 533.1000,242.000 C533.1000,242.333 533.1000,242.667 533.1000,242.1000 C533.000,243.333 531.1000,243.667 530.1000,243.1000 C530.1000,243.333 530.1000,242.667 530.1000,242.000 ZM37.000,243.1000 C37.333,244.1000 37.667,246.000 38.000,247.000 C37.333,246.667 36.667,246.333 35.1000,246.000 C36.333,245.333 36.667,244.667 37.000,243.1000 ZM431.1000,263.1000 C432.1000,263.1000 434.000,263.1000 434.1000,263.1000 C434.000,263.1000 432.1000,263.1000 431.1000,263.1000 ZM358.1000,283.1000 C359.667,284.667 360.333,285.333 361.000,285.1000 C360.333,285.333 359.667,284.667 358.1000,283.1000 ZM496.1000,284.1000 C497.120,285.097 490.417,327.635 492.1000,340.000 C503.865,392.004 523.951,455.785 473.1000,484.000 C473.333,475.334 472.667,466.666 472.000,458.000 C478.991,453.179 484.460,446.248 487.000,436.1000 C486.333,437.333 485.667,437.667 484.1000,438.000 C482.343,444.029 477.064,448.385 472.000,451.1000 C472.000,440.334 472.000,428.666 472.000,417.000 C481.988,413.856 489.858,404.933 492.1000,394.1000 C492.333,395.333 491.667,395.667 491.000,396.000 C487.971,402.685 479.645,409.038 472.000,410.1000 C472.000,408.667 472.000,406.333 472.000,403.1000 C472.667,396.667 473.333,389.333 473.1000,382.000 C476.753,376.187 484.136,374.038 487.000,366.000 C486.000,366.667 484.1000,367.333 483.1000,367.1000 C481.334,370.666 478.666,373.334 476.000,376.000 C475.667,376.000 475.333,376.000 475.000,376.000 C475.940,361.933 479.674,356.324 484.1000,347.1000 C482.667,349.333 480.333,350.667 477.1000,351.1000 C480.333,341.001 482.667,329.999 484.1000,319.000 C484.667,319.000 484.333,319.000 483.1000,319.000 C476.844,342.658 468.276,365.350 464.000,393.1000 C463.333,393.667 462.667,393.333 461.1000,393.000 C460.667,389.000 459.333,384.1000 457.1000,381.000 C457.667,381.000 457.333,381.000 457.000,381.000 C457.751,397.830 467.869,412.852 460.000,432.000 C459.667,431.333 459.333,430.667 458.1000,429.1000 C453.981,425.860 450.377,419.770 449.000,412.000 C448.667,412.000 448.333,412.000 447.1000,412.000 C447.1000,413.666 447.1000,415.333 447.1000,417.000 C456.454,440.687 461.034,449.374 461.000,485.000 C436.057,479.546 422.542,441.240 430.000,407.000 C441.609,353.706 475.333,327.152 496.1000,284.1000 ZM5.1000,320.1000 C6.667,320.1000 7.333,320.1000 8.000,320.1000 C7.333,321.667 6.667,322.333 5.1000,323.000 C5.1000,322.333 5.1000,321.667 5.1000,320.1000 ZM396.000,325.000 C400.905,332.613 400.819,336.331 411.000,339.000 C411.000,339.333 411.000,339.667 411.000,340.000 C400.011,341.857 400.407,346.841 396.000,355.000 C394.406,343.806 389.972,343.523 381.1000,339.000 C390.597,337.117 394.544,334.117 396.000,325.000 ZM598.000,331.1000 C600.303,333.709 601.017,332.409 599.1000,336.000 C599.333,335.667 598.667,335.333 598.000,335.000 C598.000,334.000 598.000,332.1000 598.000,331.1000 ZM542.1000,345.000 C543.667,345.000 544.333,345.000 544.1000,345.000 C543.255,345.977 544.780,345.912 542.1000,345.000 ZM52.000,424.1000 C52.667,424.1000 53.333,424.1000 54.000,424.1000 C53.333,425.667 52.667,426.333 52.000,427.000 C52.000,426.333 52.000,425.667 52.000,424.1000 ZM14.000,433.000 C16.042,434.800 14.707,433.015 16.000,435.1000 C15.667,435.1000 15.333,435.1000 15.000,435.1000 C14.333,435.667 13.667,435.333 12.1000,435.000 C13.333,434.333 13.667,433.667 14.000,433.000 ZM555.000,471.1000 C555.1000,472.1000 557.000,474.000 557.1000,475.000 C557.000,474.000 555.1000,472.1000 555.000,471.1000 ZM555.000,475.000 C555.667,475.000 556.333,475.000 556.1000,475.000 C556.333,475.000 555.667,475.000 555.000,475.000 ZM90.000,487.000 C94.585,492.105 97.903,495.410 103.000,500.000 C94.412,501.742 94.449,505.358 91.000,512.000 C90.667,512.000 90.333,512.000 90.000,512.000 C89.265,503.716 86.142,503.359 81.1000,498.1000 C86.337,495.599 89.000,494.069 90.000,487.000 ZM461.000,487.1000 C472.969,500.229 451.626,527.958 445.000,531.000 C452.009,518.137 460.439,507.713 461.000,487.1000 ZM362.000,511.000 C402.077,521.078 428.092,548.220 442.000,585.000 C428.807,575.296 422.159,555.519 408.1000,544.1000 C393.335,533.668 377.665,522.332 362.000,511.000 ZM575.1000,536.000 C576.333,536.667 576.667,537.333 576.1000,538.000 C576.667,537.333 576.333,536.667 575.1000,536.000 ZM525.000,545.1000 C527.666,548.1000 530.334,552.000 533.000,554.1000 C527.757,556.468 527.378,557.847 525.1000,563.000 C523.262,558.553 523.969,556.641 518.000,554.1000 C521.125,551.652 523.365,551.235 525.000,545.1000 ZM68.000,549.000 C68.667,549.000 69.333,549.000 69.1000,549.000 C68.255,549.977 69.780,549.912 68.000,549.000 ZM191.000,586.000 C191.1000,586.000 193.000,586.000 194.000,586.000 C194.000,586.333 194.000,586.667 194.000,586.1000 C193.000,587.333 191.1000,587.667 191.000,588.000 C191.000,587.333 191.000,586.667 191.000,586.000 ZM361.000,591.000 C361.667,591.000 362.333,591.000 362.1000,591.000 C362.333,591.667 361.667,592.333 361.000,593.000 C361.000,592.333 361.000,591.667 361.000,591.000 ZM233.000,601.000 C233.667,601.000 234.333,601.000 235.000,601.000 C234.333,601.000 233.667,601.000 233.000,601.000 ZM289.000,607.1000 C289.667,608.667 290.333,609.333 290.1000,610.000 C290.000,610.333 288.1000,610.667 287.1000,611.000 C288.333,610.000 288.667,608.1000 289.000,607.1000 ZM499.000,617.000 C501.174,619.067 501.173,617.932 499.000,620.000 C499.000,619.000 499.000,617.1000 499.000,617.000 Z"/>
</svg>